<?xml version="1.0" encoding="UTF-8" standalone="no"?>
<!-- Created with Inkscape (http://www.inkscape.org/) -->

<svg
   width="512mm"
   height="512mm"
   viewBox="0 0 512 512"
   version="1.1"
   id="svg5"
   inkscape:version="1.2.1 (9c6d41e, 2022-07-14)"
   sodipodi:docname="job-filler.svg"
   xml:space="preserve"
   xmlns:inkscape="http://www.inkscape.org/namespaces/inkscape"
   xmlns:sodipodi="http://sodipodi.sourceforge.net/DTD/sodipodi-0.dtd"
   xmlns="http://www.w3.org/2000/svg"
   xmlns:svg="http://www.w3.org/2000/svg"><sodipodi:namedview
     id="namedview7"
     pagecolor="#ffffff"
     bordercolor="#000000"
     borderopacity="0.25"
     inkscape:showpageshadow="2"
     inkscape:pageopacity="0.0"
     inkscape:pagecheckerboard="0"
     inkscape:deskcolor="#d1d1d1"
     inkscape:document-units="mm"
     showgrid="false"
     inkscape:zoom="0.10981419"
     inkscape:cx="-213.99784"
     inkscape:cy="414.33624"
     inkscape:window-width="1728"
     inkscape:window-height="1051"
     inkscape:window-x="0"
     inkscape:window-y="38"
     inkscape:window-maximized="0"
     inkscape:current-layer="layer1" /><defs
     id="defs2" /><g
     inkscape:label="Layer 1"
     inkscape:groupmode="layer"
     id="layer1"><rect
       style="fill:#262221;fill-opacity:1;stroke-width:0;stop-color:#000000"
       id="rect234"
       width="512"
       height="512"
       x="0"
       y="-2.8421709e-14" /><g
       id="g566"
       transform="matrix(0.26458333,0,0,0.26458333,46.504971,-123.97449)"><g
         id="g616"
         transform="translate(171.37016,12.078522)"><g
           id="g1910"
           transform="matrix(4.9251921,0,0,4.9251921,-261.5572,623.08619)"><path
             fill="#202124"
             fill-opacity="1"
             d="m 229.04,305.56 -0.03,3.97 a 0.72,0.7 -90 0 1 -0.7,0.72 H 53.56 A 0.56,0.56 0 0 1 53,309.69 l -0.06,-92.63 a 0.5,0.5 -45 0 0 -0.5,-0.5 q -9.58,-0.08 -19.17,-0.07 -9.09,0 -12.85,-1.45 Q 10.28,211.11 10.28,198 10.25,116.99 10.25,35.98 q 0,-7.79 1.47,-11.26 2.47,-5.86 8.42,-8.35 3.29,-1.37 9.92,-1.37 148.1,0 296.21,0 8.28,0 11.76,1.5 7.43,3.19 9.41,12.31 0.47,2.18 0.46,9.19 -0.15,80.25 -0.15,160.5 0,12.11 -9.92,16.37 -3.19,1.37 -8.87,1.45 -25.44,0.35 -51.79,0.17 a 1.12,1.12 -88.7 0 0 -1.12,1.07 q -0.41,9.73 2.54,17.98 0.01,0.02 3.66,7.76 8.68,18.4 -3.31,35.14 -7.05,9.84 -19.99,16.28 -14.04,6.99 -29.4,10.24 a 0.65,0.61 -6.5 0 0 -0.51,0.6 z m 53.92,-222.26 -0.11,8.51 a 0.53,0.53 -89.4 0 1 -0.53,0.52 l -17.21,0.16 a 0.53,0.51 80.3 0 0 -0.48,0.7 l 6.02,17.07 a 0.75,0.68 79 0 0 0.66,0.49 h 31.92 a 0.77,0.77 -89.5 0 1 0.77,0.77 v 8.42 a 0.81,0.81 -45 0 1 -0.81,0.81 h -29.61 a 0.45,0.43 85.9 0 0 -0.42,0.51 l 2.36,17.23 a 0.59,0.57 86 0 0 0.57,0.51 h 31 a 0.66,0.66 0.2 0 1 0.66,0.66 v 8.42 a 0.67,0.67 -0.2 0 1 -0.67,0.67 H 276.5 a 0.5,0.5 45 0 0 -0.5,0.5 v 17.19 a 0.56,0.56 0 0 0 0.56,0.56 h 44.31 a 0.87,0.85 0.3 0 1 0.87,0.86 l -0.04,8.31 a 0.86,0.84 0 0 1 -0.86,0.84 l -44.15,0.17 a 0.52,0.51 0 0 0 -0.52,0.51 v 23.87 a 0.52,0.51 0.6 0 0 0.51,0.51 q 25.8,0.31 51.59,0.19 0.09,-0.01 1.95,0.12 3.49,0.24 3.49,-3.63 0.04,-83.25 0.04,-166.5 0,-3.62 -3.34,-3.38 -1.72,0.13 -1.83,0.13 -149.83,0 -299.67,0 -2.68,0 -2.81,0.03 -1.81,0.37 -1.81,2.72 -0.04,83.75 -0.16,167.5 0,2.99 3.37,3 14.22,0.05 28.43,-0.06 a 0.97,0.97 -72.3 0 0 0.79,-0.41 q 5.42,-7.72 15.29,-9.63 a 0.61,0.6 84.5 0 0 0.49,-0.61 L 72.24,177.51 A 0.52,0.52 89.4 0 0 71.72,177 H 36.67 A 0.67,0.67 0 0 1 36,176.33 v -8.42 a 0.66,0.66 -45 0 1 0.66,-0.66 h 34.66 a 0.67,0.67 -89.6 0 0 0.67,-0.66 l 0.19,-17.02 a 0.51,0.49 -89.4 0 0 -0.49,-0.52 l -9.18,-0.04 a 0.75,0.73 0 0 1 -0.75,-0.73 l 0.04,-8.72 a 0.53,0.51 -0.6 0 1 0.52,-0.51 l 10.03,-0.04 a 0.88,0.86 2.2 0 0 0.86,-0.78 q 0.72,-8.4 2.68,-16.6 A 0.71,0.71 -83.3 0 0 75.2,120.75 H 36.88 a 0.87,0.85 0.3 0 1 -0.87,-0.86 l 0.04,-8.19 A 0.72,0.7 0 0 1 36.77,111 H 78 a 0.75,0.68 -79 0 0 0.66,-0.49 L 85.19,93.44 A 0.51,0.49 -79.3 0 0 84.74,92.75 H 72.77 A 0.77,0.77 -45 0 1 72,91.98 v -8.42 a 0.81,0.81 -45 0 1 0.81,-0.81 h 17.68 a 1.09,1.08 -73.9 0 0 0.92,-0.51 q 21.11,-34.23 59.03,-43.34 9.23,-2.22 19.78,-2.73 13.79,-0.65 25.22,1.64 41.44,8.32 63.34,44.41 a 1.14,1.12 -15.8 0 0 0.96,0.53 l 22.69,0.06 a 0.53,0.48 0.5 0 1 0.53,0.49 z M 229.06,71.69 Q 212.72,56.21 190.2,52.7 q -9.74,-1.51 -19.94,-1.05 -23.51,1.08 -42.33,14.72 -7.88,5.71 -14.45,13.72 -11.74,14.34 -17.55,32.35 -6.06,18.79 -6.58,38.56 -0.52,19.62 -0.34,40.24 a 0.77,0.76 89.3 0 0 0.77,0.76 q 58.62,-0.18 116.33,0.22 5.32,0.04 8.58,1.3 9.19,3.56 12.72,12.69 1.33,3.43 1.39,9.28 0.37,35.57 0.19,72.04 a 0.62,0.62 82.8 0 0 0.77,0.6 q 12.12,-3.14 22.55,-9.07 9.36,-5.31 14.19,-13.23 1.98,-3.26 2.35,-6.64 0.42,-3.79 -0.6,-7.19 -1.23,-4.1 -4.4,-11.08 -5.19,-11.38 -5.1,-23.92 0.25,-33.88 0.23,-67.75 0,-17.7 -5.23,-36.25 -6.89,-24.45 -24.69,-41.31 z m -19.51,137.13 q -1.39,-1 -3.1,-1.18 -2.81,-0.28 -6.7,-0.28 -61.13,0.14 -122.25,0.17 -5.49,0 -7.73,3.81 -1.27,2.16 -1.27,7.57 0,37.67 0,75.34 a 0.5,0.5 -45 0 0 0.5,0.5 l 35.45,-0.06 a 0.68,0.65 -81.7 0 0 0.63,-0.49 q 5.35,-19.05 6.26,-38.77 0.32,-7.04 1.49,-10.17 4.31,-11.49 18.17,-12.51 4.22,-0.31 15.13,0.06 6.45,0.21 9.99,1.76 7.41,3.26 10.21,10.73 1.14,3.05 1.68,12.08 1.1,18.65 6.04,36.7 a 0.68,0.66 81.9 0 0 0.64,0.49 l 38.25,0.17 a 0.56,0.55 -89.5 0 0 0.56,-0.56 q 0,-39.05 -0.01,-78.18 0,-4.34 -3.94,-7.18 z m -56.69,38.07 Q 150.7,245 147.75,245 q -6.17,0 -12.35,0 -5.7,0 -7.67,0.94 -4.04,1.92 -4.28,7.56 -0.6,14.29 -2.72,28.43 -0.45,3 -1.3,6.08 -0.82,3 -1.68,5.99 a 0.59,0.58 -81.8 0 0 0.56,0.75 h 42.83 a 0.38,0.37 -9 0 0 0.36,-0.49 q -2.24,-7.17 -3.31,-14.59 -1.92,-13.4 -2.57,-26.93 -0.17,-3.58 -2.76,-5.85 z"
             id="path570"
             style="fill:#1c1917;fill-opacity:1" /><rect
             fill="#202124"
             fill-opacity="1"
             x="-20.75"
             y="-5"
             width="41.5"
             height="10"
             rx="0.50999999"
             transform="translate(275.25,59.5)"
             id="rect576"
             style="fill:#1c1917;fill-opacity:1" /><rect
             fill="#202124"
             fill-opacity="1"
             x="-9.3800001"
             y="-5"
             width="18.76"
             height="10"
             rx="0.51999998"
             transform="translate(312.38,59.5)"
             id="rect578"
             style="fill:#1c1917;fill-opacity:1" /><rect
             fill="#202124"
             fill-opacity="1"
             x="-30.379999"
             y="-4.8800001"
             width="60.759998"
             height="9.7600002"
             rx="0.60000002"
             transform="translate(66.38,59.63)"
             id="rect580"
             style="fill:#1c1917;fill-opacity:1" /><rect
             fill="#202124"
             fill-opacity="1"
             x="-11.5"
             y="-5"
             width="23"
             height="10"
             rx="0.58999997"
             transform="rotate(-0.1,50303.159,-29893.162)"
             id="rect582"
             style="fill:#1c1917;fill-opacity:1" /><rect
             fill="#202124"
             fill-opacity="1"
             x="-9.1199999"
             y="-4.8800001"
             width="18.24"
             height="9.7600002"
             rx="0.43000001"
             transform="rotate(-0.1,50359.969,-173780.08)"
             id="rect584"
             style="fill:#1c1917;fill-opacity:1" /><ellipse
             fill="#202124"
             fill-opacity="1"
             cx="0"
             cy="0"
             rx="15.49"
             ry="14.03"
             transform="rotate(89.8,-9.0276766,138.83701)"
             id="ellipse586"
             style="fill:#1c1917;fill-opacity:1" /><ellipse
             fill="#202124"
             fill-opacity="1"
             cx="0"
             cy="0"
             rx="15.49"
             ry="14.03"
             transform="rotate(90.2,30.871761,177.62156)"
             id="ellipse588"
             style="fill:#1c1917;fill-opacity:1" /><rect
             fill="#202124"
             fill-opacity="1"
             x="-7.8800001"
             y="-5"
             width="15.76"
             height="10"
             rx="0.58999997"
             transform="rotate(-0.1,82529.342,-26788.247)"
             id="rect590"
             style="fill:#1c1917;fill-opacity:1" /></g></g></g></g></svg>
