<?xml version="1.0" encoding="UTF-8" standalone="no"?>
<!-- Created with Inkscape (http://www.inkscape.org/) -->

<svg
   width="512mm"
   height="512mm"
   viewBox="0 0 512 512"
   version="1.1"
   id="svg30900"
   xml:space="preserve"
   inkscape:version="1.2.1 (9c6d41e, 2022-07-14)"
   sodipodi:docname="stripes39.svg"
   xmlns:inkscape="http://www.inkscape.org/namespaces/inkscape"
   xmlns:sodipodi="http://sodipodi.sourceforge.net/DTD/sodipodi-0.dtd"
   xmlns="http://www.w3.org/2000/svg"
   xmlns:svg="http://www.w3.org/2000/svg"><sodipodi:namedview
     id="namedview30902"
     pagecolor="#ffffff"
     bordercolor="#000000"
     borderopacity="0.25"
     inkscape:showpageshadow="2"
     inkscape:pageopacity="0.0"
     inkscape:pagecheckerboard="0"
     inkscape:deskcolor="#d1d1d1"
     inkscape:document-units="mm"
     showgrid="false"
     inkscape:zoom="0.15991086"
     inkscape:cx="400.22296"
     inkscape:cy="675.37625"
     inkscape:window-width="1599"
     inkscape:window-height="976"
     inkscape:window-x="0"
     inkscape:window-y="38"
     inkscape:window-maximized="0"
     inkscape:current-layer="layer1" /><defs
     id="defs30897" /><g
     inkscape:label="Layer 1"
     inkscape:groupmode="layer"
     id="layer1"><rect
       style="fill:#ffffff;fill-opacity:1;stroke:none;stroke-width:0;stop-color:#000000"
       id="rect31003"
       width="512"
       height="512"
       x="0"
       y="0" /><g
       id="g30949"
       transform="matrix(1.5714286,0,0,1.5714286,35.999996,194.74178)"><path
         fill="#000000"
         fill-opacity="1"
         d="m 42.24,14.69 q 0.42,-3.76 0.26,-4.94 -0.37,-2.73 0.85,-4.86 1.15,-2 3.66,-2.67 3.86,-1.02 5.95,2.04 1.22,1.77 1.27,5.4 0.25,19.12 0.27,38.25 0,0.07 0.05,2.18 0.1,3.79 -1.11,6.1 -1.58,3 -5.69,2.53 -4.79,-0.54 -5.06,-5.48 -0.74,-13.58 -0.27,-26.8 a 0.68,0.67 -89.2 0 0 -0.68,-0.71 q -3.68,0.05 -5.53,-1.56 -1.94,-1.67 -1.27,-4.8 0.97,-4.59 6.74,-4.22 a 0.53,0.51 4.6 0 0 0.56,-0.46 z"
         id="path30904" /><rect
         fill="#ef5b21"
         fill-opacity="1"
         x="-3.6900001"
         y="-29.360001"
         width="7.3800001"
         height="58.720001"
         rx="3.5999999"
         transform="rotate(30.5,-13.869504,186.17141)"
         id="rect30906" /><rect
         fill="#ef5b21"
         fill-opacity="1"
         x="-3.6900001"
         y="-29.360001"
         width="7.3800001"
         height="58.720001"
         rx="3.6400001"
         transform="rotate(30.5,-6.3894841,213.391)"
         id="rect30908" /><rect
         fill="#ef5b21"
         fill-opacity="1"
         x="-3.6900001"
         y="-29.370001"
         width="7.3800001"
         height="58.740002"
         rx="3.6400001"
         transform="rotate(30.5,1.0021761,240.57556)"
         id="rect30910" /><path
         fill="#000000"
         fill-opacity="1"
         d="m 0,51.69 q 0,-1.25 0,-2.5 2.82,-6.25 8.69,-3.13 4.58,2.44 8.49,2.86 2.16,0.23 3.5,-0.6 1.83,-1.13 0.8,-3.25 Q 20.92,43.91 19.33,43.19 14.48,41 9.54,38.99 5.67,37.42 3.49,34.25 1.34,31.14 1.51,27.23 1.67,23.56 3.77,20.59 5.6,18.02 9.04,16.4 q 8.6,-4.04 17.99,0.11 1.81,0.79 3.2,2.09 1.48,1.38 1.92,3.17 0.92,3.76 -2.75,5.8 -1.57,0.87 -3.23,0.19 -3.63,-1.5 -6.82,-2.68 -2.7,-1 -4.84,0.28 -1.51,0.91 -1.45,2.46 0.07,1.8 2.18,2.71 4.28,1.85 8.64,3.5 3.7,1.4 6.31,4.12 2.62,2.73 2.99,6.53 0.53,5.44 -2.94,9.31 -2.8,3.14 -7.89,4.52 Q 12.44,61.19 3.19,55.31 1.33,54.13 0,51.69 Z"
         id="path30912" /><path
         fill="#000000"
         fill-opacity="1"
         d="m 134.94,76 q -1.88,0 -3.75,0 -0.96,-1.3 -1.99,-2.01 -1.69,-1.16 -1.7,-3.21 -0.04,-14.21 0.05,-28.18 0.01,-2.04 1.02,-3.8 8.88,-15.46 10.99,-18.99 1.63,-2.71 4.47,-4.06 2.26,-1.07 5.7,-1.21 11.97,-0.48 17.27,10.71 2.93,6.18 2.5,13.75 -0.38,6.94 -4.09,12.15 -3.85,5.43 -9.75,7.34 -7.48,2.42 -15.44,-2.25 -0.97,-0.57 -0.97,0.55 0,6.46 0,13.46 0,4.19 -4.31,5.75 z m 13.7333,-27.4009 a 11.73,9.16 89.3 0 0 9.016,-11.841 11.73,9.16 89.3 0 0 -9.3026,-11.6172 11.73,9.16 89.3 0 0 -9.016,11.841 11.73,9.16 89.3 0 0 9.3026,11.6172 z"
         id="path30914" /><path
         fill="#000000"
         fill-opacity="1"
         d="m 197.54,48.77 q 4.44,-0.56 8.4,-2.79 2.57,-1.45 4.06,-1.37 2.77,0.15 3.93,2.73 0.89,1.99 0.12,3.84 -0.76,1.84 -2.74,3.13 -6.59,4.33 -13.86,4.92 -7.62,0.62 -13.84,-2.76 -8.76,-4.75 -10.36,-15.97 -1.11,-7.75 2.21,-14.18 3.37,-6.53 9.54,-9.71 4.77,-2.46 10.35,-2.13 5.21,0.3 9.73,3.08 8.1,5 10.21,15.18 0.54,2.61 -0.28,5.14 -0.96,2.97 -4.26,2.92 -12.5,-0.22 -25.01,0.2 a 0.55,0.55 -10.9 0 0 -0.5,0.73 q 1.51,4.2 5.05,6.04 2.94,1.53 7.25,1 z m 1.21,-23.33 q -0.87,-0.6 -1.89,-0.84 -8.33,-1.93 -11.69,6.82 a 1.17,1.17 -79.6 0 0 1.09,1.58 h 16.41 a 0.63,0.62 84.3 0 0 0.61,-0.75 q -0.86,-4.24 -4.53,-6.81 z"
         id="path30916" /><path
         fill="#000000"
         fill-opacity="1"
         d="m 233.31,48.94 q 1.65,0.43 3.66,0 2.05,-0.44 2.7,-2 0.76,-1.79 -0.95,-3.11 -0.71,-0.55 -2.69,-1.27 -7.8,-2.86 -11.97,-5.62 -2.71,-1.8 -3.86,-4.97 -0.99,-2.73 -0.47,-6 1.32,-8.19 10.06,-10.58 9.58,-2.63 17.52,2.3 2.57,1.59 2.92,4.55 0.22,1.9 -0.66,3.4 -1.03,1.75 -3.02,2.18 -1.53,0.33 -3.82,-0.63 -1.85,-0.77 -3.66,-1.6 -2.49,-1.15 -5.06,-0.73 -1.81,0.3 -2.63,1.47 -1.22,1.72 0.93,3.61 1.21,1.05 7.94,3.56 3.97,1.48 6.74,3.67 3.08,2.44 3.96,6.2 1.25,5.31 -1.81,9.55 -2.48,3.43 -7.4,5.13 -9.66,3.33 -19.49,-2.05 -6.13,-3.35 -3.16,-8.28 1.2,-1.98 3.15,-2.39 2.11,-0.45 4.27,0.65 4.8,2.44 6.8,2.96 z"
         id="path30918" /><path
         fill="#000000"
         fill-opacity="1"
         d="m 62.41,57.93 q -2.31,-1.81 -2.43,-4.19 -0.77,-15.69 -0.32,-31.4 0.1,-3.56 1.51,-5.29 2.92,-3.6 8.47,-1.12 1.47,0.65 1.6,2.17 0.16,1.93 1.38,0.43 2.96,-3.66 7.26,-3.54 2.58,0.08 4.23,1.62 2,1.87 1.61,4.76 -0.27,2.02 -1.94,3.13 -1.37,0.9 -3.53,1.75 -2.79,1.09 -5.32,2.67 -1.68,1.03 -2.54,2.66 -0.63,1.18 -0.71,3.46 -0.27,7.61 -0.21,15.22 0.03,4.28 -0.8,5.83 -1.65,3.1 -6.22,2.65 a 3.95,3.92 -23.1 0 1 -2.04,-0.81 z"
         id="path30920" /><path
         fill="#ef5b21"
         fill-opacity="1"
         d="m 264.03,25.11 q 2.26,0.96 2.4,3.64 0.32,5.87 -5.44,6.69 -4.04,0.58 -6.37,-2.58 -1.05,-1.43 -0.18,-2.92 1.31,-2.26 2.12,0.75 0.33,1.23 1.23,1.86 0.72,0.5 2.02,0.51 5.07,0.07 3.49,-5.12 a 2.72,2.71 -1.1 0 0 -1.93,-1.85 q -4.88,-1.24 -1.03,-2.56 1.1,-0.38 1.6,-0.92 1.57,-1.69 0.5,-3.55 -0.86,-1.5 -2.58,-1.54 -2.34,-0.06 -2.8,2.73 a 1.59,0.92 84.7 0 1 -0.4,0.87 q -0.98,0.88 -1.7,-0.42 a 1.42,1.25 -56.1 0 1 -0.12,-0.93 q 1.03,-5.02 5.31,-4.7 3.28,0.25 4.73,2.93 1.66,3.06 -1,6.55 a 0.37,0.36 30.6 0 0 0.15,0.56 z"
         id="path30922" /><path
         fill="#ef5b21"
         fill-opacity="1"
         d="m 280,19.56 q 0,2.5 0,5 -2,6.55 -7.41,10.59 a 1.24,1.09 -55.9 0 1 -0.89,0.23 q -2.27,-0.38 -0.14,-2.32 2.32,-2.11 3.51,-4.17 a 0.3,0.3 15.2 0 0 -0.26,-0.45 q -6.99,-0.09 -7.15,-5.99 -0.1,-3.51 1.85,-5.6 2.37,-2.53 6.68,-1.29 2.16,0.62 3.81,4 z m -6.1324,6.55 a 4.32,3.46 89.9 0 0 3.4524,-4.326 4.32,3.46 89.9 0 0 -3.4676,-4.314 4.32,3.46 89.9 0 0 -3.4524,4.326 4.32,3.46 89.9 0 0 3.4676,4.314 z"
         id="path30924" /><ellipse
         fill="#000000"
         fill-opacity="0"
         cx="0"
         cy="0"
         rx="4.3200002"
         ry="3.46"
         transform="rotate(89.9,126.01597,148.0642)"
         id="ellipse30926" /><ellipse
         fill="#000000"
         fill-opacity="0"
         cx="0"
         cy="0"
         rx="11.73"
         ry="9.1599998"
         transform="rotate(89.3,55.603387,93.612906)"
         id="ellipse30928" /></g></g></svg>
