<?xml version="1.0" encoding="UTF-8" standalone="no"?>
<!-- Created with Inkscape (http://www.inkscape.org/) -->

<svg
   width="512mm"
   height="512mm"
   viewBox="0 0 512 512"
   version="1.1"
   id="svg30900"
   xml:space="preserve"
   sodipodi:docname="prioritysales.svg"
   inkscape:version="1.2.1 (9c6d41e, 2022-07-14)"
   xmlns:inkscape="http://www.inkscape.org/namespaces/inkscape"
   xmlns:sodipodi="http://sodipodi.sourceforge.net/DTD/sodipodi-0.dtd"
   xmlns="http://www.w3.org/2000/svg"
   xmlns:svg="http://www.w3.org/2000/svg"><sodipodi:namedview
     id="namedview30902"
     pagecolor="#ffffff"
     bordercolor="#000000"
     borderopacity="0.25"
     inkscape:showpageshadow="2"
     inkscape:pageopacity="0.0"
     inkscape:pagecheckerboard="0"
     inkscape:deskcolor="#d1d1d1"
     inkscape:document-units="mm"
     showgrid="false"
     inkscape:zoom="0.15991086"
     inkscape:cx="594.08098"
     inkscape:cy="675.37627"
     inkscape:window-width="1599"
     inkscape:window-height="976"
     inkscape:window-x="0"
     inkscape:window-y="38"
     inkscape:window-maximized="0"
     inkscape:current-layer="layer1" /><defs
     id="defs30897" /><g
     inkscape:label="Layer 1"
     inkscape:groupmode="layer"
     id="layer1"><rect
       style="fill:#ffffff;fill-opacity:1;stroke:none;stroke-width:0;stop-color:#000000"
       id="rect31003"
       width="512"
       height="512"
       x="0"
       y="0" /><path
       d="m 206.72652,262.18383 5.7197,-27.00036 h 12.11231 l -6.05616,28.59852 q -0.33645,1.26168 -0.33645,2.6916 0,0.9749 0.26917,1.62591 a 2.0826437,2.0826437 0 0 0 0.52991,0.77134 2.3206841,2.3206841 0 0 0 0.72843,0.42813 q 0.67542,0.25814 1.69235,0.28357 a 9.0758181,9.0758181 0 0 0 0.2288,0.003 5.8231592,5.8231592 0 0 0 3.19544,-0.9742 8.465156,8.465156 0 0 0 1.34666,-1.08673 10.973413,10.973413 0 0 0 2.33498,-3.41078 14.190744,14.190744 0 0 0 0.69309,-1.9304 l 5.0468,-23.63581 h -2.77574 l 0.67291,-3.36455 h 2.77573 l 2.5234,-11.60763 12.44876,-1.68224 -2.85985,13.28987 h 5.04679 l -0.6729,3.36455 h -5.0468 l -5.38324,25.23397 q -0.33646,1.26168 -0.33646,2.6916 0,0.9749 0.26917,1.62591 a 2.0826437,2.0826437 0 0 0 0.52992,0.77134 2.3206841,2.3206841 0 0 0 0.72842,0.42813 q 0.67543,0.25814 1.69236,0.28357 a 9.0758181,9.0758181 0 0 0 0.22879,0.003 5.8231592,5.8231592 0 0 0 3.19547,-0.97404 8.465156,8.465156 0 0 0 1.34665,-1.08674 10.973413,10.973413 0 0 0 2.33498,-3.4108 14.190744,14.190744 0 0 0 0.6931,-1.93037 l 5.7197,-27.00037 h 12.1123 l -6.05615,28.59849 q -0.25232,1.00936 -0.25232,2.10284 a 8.0336549,8.0336549 0 0 0 0.0967,1.30377 q 0.38187,2.30805 2.27862,2.39385 a 3.2921921,3.2921921 0 0 0 0.14805,0.003 q 2.18694,0 3.86921,-1.89254 a 11.426783,11.426783 0 0 0 1.49295,-2.15949 q 0.55768,-1.02786 1.00011,-2.2643 a 20.207363,20.207363 0 0 0 0.1985,-0.58123 l 5.88794,-27.50505 h 12.1123 l -8.32721,39.02856 a 17.19611,17.19611 0 0 0 3.43435,-1.55779 13.368116,13.368116 0 0 0 3.04237,-2.47965 14.398503,14.398503 0 0 0 1.72348,-2.38546 q 1.34665,-2.29377 2.39807,-5.60529 h 2.96078 a 15.23543,15.23543 0 0 1 0.53749,-2.61594 13.651578,13.651578 0 0 1 0.91767,-2.26262 12.925681,12.925681 0 0 1 2.6563,-3.56725 12.010529,12.010529 0 0 1 1.54936,-1.22722 q 2.64957,-1.76636 5.84587,-1.76636 a 9.7663877,9.7663877 0 0 1 2.35938,0.27181 7.3969177,7.3969177 0 0 1 2.60331,1.2003 q 2.01871,1.47197 2.52339,4.07946 a 13.428678,13.428678 0 0 0 -2.91536,0.29851 q -2.39555,0.53247 -4.06604,2.01453 a 7.6164534,7.6164534 0 0 0 -2.52844,4.94166 10.80098,10.80098 0 0 0 -0.0791,1.32478 9.7041438,9.7041438 0 0 0 0.32047,2.55955 7.1723355,7.1723355 0 0 0 1.86647,3.24425 q 2.18694,2.18696 5.80382,2.18696 a 10.896028,10.896028 0 0 0 3.72032,-0.61318 9.540964,9.540964 0 0 0 3.63958,-2.37284 10.162561,10.162561 0 0 0 2.87247,-6.62225 13.514473,13.514473 0 0 0 0.0296,-0.90588 q 0,-3.95332 -2.18695,-7.48607 a 42.297179,42.297179 0 0 0 -1.58061,-2.35602 q -1.90938,-2.66557 -4.78773,-6.00065 a 133.29256,133.29256 0 0 0 -0.19262,-0.22285 q -2.98097,-3.4226 -5.00137,-6.21095 a 45.294975,45.294975 0 0 1 -1.85386,-2.74714 q -2.31311,-3.74302 -2.31311,-8.20104 0,-4.37388 2.43928,-7.86458 a 16.009272,16.009272 0 0 1 4.94081,-4.55642 19.791003,19.791003 0 0 1 1.78825,-0.95299 21.23018,21.23018 0 0 1 6.71139,-1.85722 26.43763,26.43763 0 0 1 2.96163,-0.1615 23.572734,23.572734 0 0 1 4.49838,0.40374 q 2.58816,0.503 4.64052,1.63431 a 13.067832,13.067832 0 0 1 1.75376,1.15826 10.185272,10.185272 0 0 1 4.03071,7.42551 13.320172,13.320172 0 0 1 0.0488,1.15404 11.51426,11.51426 0 0 1 -0.2473,2.45441 q -0.36169,1.65872 -1.25329,2.91452 a 7.1134561,7.1134561 0 0 1 -0.2658,0.35075 5.6044646,5.6044646 0 0 1 -4.05678,2.16426 7.0713997,7.0713997 0 0 1 -0.56945,0.0223 6.2941934,6.2941934 0 0 1 -2.80013,-0.61235 q -1.23983,-0.60562 -2.18863,-1.81011 a 8.0336549,8.0336549 0 0 1 -0.14213,-0.18502 8.014309,8.014309 0 0 0 2.28199,-2.64033 9.5291884,9.5291884 0 0 0 0.24142,-0.47187 q 0.92524,-1.9346 0.92524,-4.03743 a 7.3304682,7.3304682 0 0 0 -0.22377,-1.86059 5.2461423,5.2461423 0 0 0 -1.37441,-2.42917 q -1.59815,-1.59816 -4.37389,-1.59816 a 7.684585,7.684585 0 0 0 -2.84219,0.50888 6.9973798,6.9973798 0 0 0 -2.66723,1.88834 8.3171166,8.3171166 0 0 0 -2.02713,4.43444 11.351081,11.351081 0 0 0 -0.11775,1.66377 q 0,3.36452 1.9346,6.26645 1.93461,2.9019 6.05616,7.44402 3.28294,3.52938 5.32521,6.09735 a 56.625872,56.625872 0 0 1 0.1001,0.12684 25.524161,25.524161 0 0 1 2.65798,4.16111 30.386747,30.386747 0 0 1 0.87478,1.85299 18.224815,18.224815 0 0 1 1.46609,6.86787 20.965224,20.965224 0 0 1 0.006,0.49205 q 0,5.38324 -2.98603,9.75715 a 20.155213,20.155213 0 0 1 -6.86195,6.21597 24.338164,24.338164 0 0 1 -1.29703,0.6813 25.169203,25.169203 0 0 1 -9.34666,2.44853 30.163847,30.163847 0 0 1 -2.13479,0.075 25.87239,25.87239 0 0 1 -4.691,-0.40711 19.648852,19.648852 0 0 1 -4.64557,-1.44337 15.838522,15.838522 0 0 1 -3.75566,-2.37201 13.390827,13.390827 0 0 1 -2.46872,-2.80096 13.319331,13.319331 0 0 1 -2.13311,-6.35559 16.57283,16.57283 0 0 1 -0.053,-1.1591 37.129262,37.129262 0 0 1 -0.90338,2.25591 q -0.95216,2.14407 -2.09357,3.81624 a 15.953757,15.953757 0 0 1 -2.47125,2.87246 q -3.86921,3.49069 -8.74778,4.75241 l -1.26169,6.05615 a 32.242284,32.242284 0 0 1 -1.1389,4.18631 q -1.70245,4.83567 -4.66492,7.04278 -4.12155,3.07014 -9.33657,3.07014 a 12.778483,12.778483 0 0 1 -3.13995,-0.36756 9.566198,9.566198 0 0 1 -3.58911,-1.73524 6.8241067,6.8241067 0 0 1 -2.58059,-4.52699 10.123028,10.123028 0 0 1 -0.11104,-1.52917 9.5493755,9.5493755 0 0 1 0.87898,-4.14005 q 0.90506,-1.91022 2.74125,-3.36455 a 11.960061,11.960061 0 0 1 0.24898,-0.1917 q 3.48397,-2.6134 8.67208,-4.44201 a 48.259126,48.259126 0 0 1 1.16901,-0.39452 l 1.00936,-4.54212 a 18.428368,18.428368 0 0 1 -1.84124,1.78153 q -1.06151,0.88572 -2.139,1.46104 a 9.8824639,9.8824639 0 0 1 -0.98245,0.45843 q -2.52339,1.00936 -5.1309,1.00936 a 10.488079,10.488079 0 0 1 -2.97004,-0.40124 8.1034689,8.1034689 0 0 1 -3.54874,-2.12216 7.8940271,7.8940271 0 0 1 -1.82189,-3.03733 12.302402,12.302402 0 0 1 -0.43907,-1.74115 25.680611,25.680611 0 0 1 -0.30281,0.42561 q -1.70245,2.30977 -3.70267,3.63789 a 21.446351,21.446351 0 0 1 -4.02565,2.1264 15.391881,15.391881 0 0 1 -5.64737,1.11198 10.488079,10.488079 0 0 1 -2.97004,-0.40124 8.1034689,8.1034689 0 0 1 -3.54873,-2.12216 7.8940271,7.8940271 0 0 1 -1.82189,-3.03733 12.302402,12.302402 0 0 1 -0.43908,-1.74115 25.680611,25.680611 0 0 1 -0.3028,0.42561 q -1.70245,2.30977 -3.70267,3.63789 a 21.446351,21.446351 0 0 1 -4.02566,2.1264 15.391881,15.391881 0 0 1 -5.64736,1.11198 10.488079,10.488079 0 0 1 -2.97004,-0.40124 8.1034689,8.1034689 0 0 1 -3.54874,-2.12216 7.8940271,7.8940271 0 0 1 -1.82189,-3.03733 q -0.42225,-1.23647 -0.57449,-2.74965 a 17.869015,17.869015 0 0 1 -0.0849,-1.78321 q 0,-2.00696 0.61319,-5.16286 a 55.539128,55.539128 0 0 1 0.0597,-0.30456 z M 367.80335,239.0527 v 0.5888 l 0.92524,-4.45803 h 12.11231 l -6.05616,28.59852 q -0.33644,1.26168 -0.33644,2.6916 a 5.4774539,5.4774539 0 0 0 0.16499,1.40891 q 0.48199,1.8034 2.36696,2.1331 a 5.3176386,5.3176386 0 0 0 0.91681,0.075 4.7263225,4.7263225 0 0 0 3.23501,-1.28104 7.1378492,7.1378492 0 0 0 0.84449,-0.90588 13.204096,13.204096 0 0 0 1.45936,-2.34594 q 0.57703,-1.17 1.0304,-2.57134 a 24.241434,24.241434 0 0 0 0.24384,-0.80243 l 9.00011,-42.14071 12.44875,-1.68228 -9.673,45.42115 q -0.33647,1.26168 -0.33647,2.69163 0,0.97487 0.26926,1.62591 a 2.0826437,2.0826437 0 0 0 0.52993,0.77131 2.3206841,2.3206841 0 0 0 0.72842,0.42813 q 0.67543,0.25814 1.69235,0.28357 a 9.0758181,9.0758181 0 0 0 0.2289,0.003 5.8231592,5.8231592 0 0 0 3.19548,-0.97404 8.465156,8.465156 0 0 0 1.34663,-1.08674 10.973413,10.973413 0 0 0 1.93965,-2.59658 23.632454,23.632454 0 0 1 -0.006,-0.55767 q 0,-5.44125 1.99598,-11.91714 a 58.659728,58.659728 0 0 1 0.27499,-0.86805 q 2.27108,-6.98139 7.40196,-12.07025 a 17.361813,17.361813 0 0 1 11.341,-5.02829 23.232075,23.232075 0 0 1 1.69658,-0.0604 15.425526,15.425526 0 0 1 3.49152,0.35914 q 5.76091,1.34415 5.76091,7.71573 0,4.71032 -2.6916,8.66367 a 19.786797,19.786797 0 0 1 -6.87292,6.19915 23.044503,23.044503 0 0 1 -0.27658,0.15132 q -4.458,2.39722 -9.50479,2.73366 -0.14465,2.17685 -0.165,3.10126 a 12.333523,12.333523 0 0 0 -0.003,0.26323 18.594913,18.594913 0 0 0 0.0865,1.86815 q 0.18916,1.86228 0.78981,2.96078 a 3.4932227,3.4932227 0 0 0 0.55348,0.7646 4.2611766,4.2611766 0 0 0 1.57209,0.99925 q 1.24404,0.47273 3.05415,0.47273 a 16.385258,16.385258 0 0 0 3.84901,-0.43235 12.5682,12.5682 0 0 0 3.93144,-1.67049 25.599022,25.599022 0 0 0 2.51752,-1.88497 40.307061,40.307061 0 0 0 2.13564,-1.94302 9.9573247,9.9573247 0 0 1 0.0842,-0.34821 8.1135625,8.1135625 0 0 1 0.98243,-2.25845 9.3323634,9.3323634 0 0 1 1.31805,-1.65872 7.163924,7.163924 0 0 1 1.8362,-1.3273 q 3.2804,-5.88791 5.71968,-11.90204 a 158.12615,158.12615 0 0 0 2.9507,-7.8957 189.14964,189.14964 0 0 0 1.67554,-5.09979 l 12.44877,-1.68224 q 0.42057,10.76647 1.42992,23.29934 a 219.0746,219.0746 0 0 1 0.18407,2.34931 q 0.23653,3.26527 0.23653,4.96856 a 18.348461,18.348461 0 0 1 -0.0439,1.30291 q -0.0429,0.61067 -0.13035,1.133 a 8.1875823,8.1875823 0 0 1 -0.16245,0.7604 54.672761,54.672761 0 0 0 2.2904,-1.38703 q 2.31984,-1.4888 3.76576,-2.81864 h 3.53275 q -5.38327,6.22439 -12.86934,10.51415 a 14.438037,14.438037 0 0 1 -5.79203,3.74893 16.852928,16.852928 0 0 1 -0.22222,0.0782 q -3.57482,1.21962 -7.19169,1.21962 -4.03744,0 -6.81316,-1.55607 a 11.351922,11.351922 0 0 1 -2.4662,-1.83538 9.4206821,9.4206821 0 0 1 -1.65535,-2.20205 10.707615,10.707615 0 0 1 -1.07329,-2.79931 43.263643,43.263643 0 0 1 -0.32551,0.35329 q -3.98444,4.20818 -8.59974,6.21342 a 22.159631,22.159631 0 0 1 -8.92696,1.8261 19.222397,19.222397 0 0 1 -3.86833,-0.36588 q -3.51426,-0.72254 -5.80466,-2.87246 a 9.9219971,9.9219971 0 0 1 -2.53182,-3.99624 15.852821,15.852821 0 0 1 -0.10523,-0.31631 25.680611,25.680611 0 0 1 -0.47356,0.6746 q -1.70246,2.30973 -3.70267,3.63789 a 21.446351,21.446351 0 0 1 -4.02564,2.12639 15.391881,15.391881 0 0 1 -5.64739,1.11198 10.488079,10.488079 0 0 1 -2.97003,-0.40123 8.1034689,8.1034689 0 0 1 -3.54874,-2.12217 7.8940271,7.8940271 0 0 1 -1.82187,-3.03733 12.302402,12.302402 0 0 1 -0.41974,-1.63347 27.535308,27.535308 0 0 1 -0.0858,0.12716 q -1.68816,2.44685 -3.64463,3.82882 -4.58417,3.23838 -9.21041,3.23838 -3.53275,0 -5.67762,-1.97669 -1.96826,-1.81431 -2.4847,-5.15193 a 14.394298,14.394298 0 0 1 -0.0807,-0.60981 25.832856,25.832856 0 0 1 -2.91706,3.46714 20.980364,20.980364 0 0 1 -2.50827,2.12639 11.39482,11.39482 0 0 1 -5.47996,2.05572 14.620562,14.620562 0 0 1 -1.62759,0.0893 11.516784,11.516784 0 0 1 -4.26959,-0.76963 10.605838,10.605838 0 0 1 -3.72117,-2.51081 q -2.40984,-2.47374 -3.00284,-7.05034 a 25.044715,25.044715 0 0 1 -0.19345,-3.21145 35.111387,35.111387 0 0 1 0.95721,-7.97562 45.007309,45.007309 0 0 1 1.52413,-5.10398 30.848528,30.848528 0 0 1 5.0939,-9.10022 28.891214,28.891214 0 0 1 2.30807,-2.50741 q 4.92062,-4.75241 11.73378,-4.75241 a 16.196003,16.196003 0 0 1 1.80003,0.0925 q 1.92535,0.21618 3.09957,0.93281 a 4.4336084,4.4336084 0 0 1 0.23144,0.15227 4.239307,4.239307 0 0 1 1.02532,0.98918 3.539485,3.539485 0 0 1 0.65692,2.12302 z m -252.08735,23.13113 5.7197,-27.00036 h 12.11231 l -6.05615,28.59852 q -0.33645,1.26168 -0.33645,2.6916 0,0.9749 0.26917,1.62591 a 2.0826437,2.0826437 0 0 0 0.52991,0.77134 2.3206841,2.3206841 0 0 0 0.72842,0.42813 q 0.67543,0.25814 1.69236,0.28357 a 9.0758181,9.0758181 0 0 0 0.2288,0.003 5.8231592,5.8231592 0 0 0 3.19546,-0.97404 8.465156,8.465156 0 0 0 1.34666,-1.08673 10.973413,10.973413 0 0 0 1.86226,-2.45527 22.888893,22.888893 0 0 1 -0.0118,-0.78311 q 0,-5.15024 1.90937,-11.32332 a 57.082604,57.082604 0 0 1 0.44576,-1.37791 q 2.35517,-6.98139 7.57019,-12.07024 5.21502,-5.08886 13.12166,-5.08886 a 12.180437,12.180437 0 0 1 4.71035,0.84112 q 5.26548,2.1937 5.95269,10.10872 a 29.008972,29.008972 0 0 1 0.10345,2.50827 v 0.0842 q 0.24393,0.0808 0.87982,0.0833 a 10.428359,10.428359 0 0 0 0.0454,8.5e-4 12.730538,12.730538 0 0 0 2.39386,-0.24319 q 1.85133,-0.35498 3.99875,-1.22891 a 32.710795,32.710795 0 0 0 0.30195,-0.12367 l 2.38965,-11.27369 h 12.11231 l -1.09345,5.21503 q 2.1861,-1.92955 4.05257,-3.17022 a 22.146173,22.146173 0 0 1 1.12039,-0.69898 q 2.31312,-1.34583 5.00474,-1.34583 a 6.3000813,6.3000813 0 0 1 1.89423,0.27085 4.9635218,4.9635218 0 0 1 2.35349,1.57966 6.6087767,6.6087767 0 0 1 1.546,4.045 8.4458097,8.4458097 0 0 1 0.0102,0.413 q 0,2.43927 -1.59815,4.28975 a 5.2175439,5.2175439 0 0 1 -3.18705,1.74872 7.6198178,7.6198178 0 0 1 -1.27095,0.10173 q -1.61413,0 -2.3005,-0.67288 a 1.5830111,1.5830111 0 0 1 -0.18086,-0.21014 4.2847282,4.2847282 0 0 1 -0.41552,-0.73853 q -0.1683,-0.37427 -0.30624,-0.83184 a 10.732849,10.732849 0 0 1 -0.24561,-0.99505 q -0.20439,-0.88573 -0.40879,-1.38535 a 3.1256478,3.1256478 0 0 0 -0.0959,-0.21268 0.86300178,0.86300178 0 0 0 -0.62243,-0.47524 1.4383363,1.4383363 0 0 0 -0.30281,-0.0286 q -1.66797,0 -2.84808,0.63757 a 4.5067871,4.5067871 0 0 0 -0.13794,0.0772 10.326582,10.326582 0 0 0 -0.7873,0.51647 q -1.00684,0.72251 -2.36695,1.96487 l -6.72906,31.96304 h -12.11231 l 5.7054,-26.91119 a 32.106861,32.106861 0 0 1 -5.34119,1.60823 36.937484,36.937484 0 0 1 -1.71002,0.32134 44.437863,44.437863 0 0 1 -1.14478,6.96121 33.23398,33.23398 0 0 1 -2.30386,6.41278 26.455294,26.455294 0 0 1 -2.95322,4.78856 20.239327,20.239327 0 0 1 -4.19641,4.04335 q -4.37389,3.11216 -9.50479,3.11216 -5.0754,0 -8.41721,-2.12553 a 11.322482,11.322482 0 0 1 -1.42404,-1.07075 9.8109676,9.8109676 0 0 1 -2.73115,-4.17204 25.680611,25.680611 0 0 1 -0.46347,0.6603 q -1.70245,2.30976 -3.70266,3.63789 a 21.446351,21.446351 0 0 1 -4.02566,2.12639 15.391881,15.391881 0 0 1 -5.64736,1.11198 10.488079,10.488079 0 0 1 -2.97004,-0.40123 8.1034689,8.1034689 0 0 1 -3.54874,-2.12217 7.8940271,7.8940271 0 0 1 -1.82189,-3.03733 q -0.42225,-1.23647 -0.57449,-2.74965 a 17.869015,17.869015 0 0 1 -0.0849,-1.78321 q 0,-2.00696 0.61318,-5.16286 a 55.539128,55.539128 0 0 1 0.0597,-0.30456 z m -71.916812,15.05627 11.439401,-53.49602 12.448758,-1.68228 -5.97204,28.09384 a 11.52099,11.52099 0 0 0 5.673438,-2.09444 15.438984,15.438984 0 0 0 1.770584,-1.43831 21.775234,21.775234 0 0 0 4.701088,-6.47169 25.792482,25.792482 0 0 0 0.640102,-1.43498 q 1.934606,-4.71032 1.934606,-9.25243 a 15.976468,15.976468 0 0 0 -0.389444,-3.62698 11.207247,11.207247 0 0 0 -2.218069,-4.61613 q -2.551153,-3.12815 -7.59963,-3.19545 a 16.746104,16.746104 0 0 0 -0.222901,-8.6e-4 q -10.261814,0 -16.023571,5.38327 a 17.613311,17.613311 0 0 0 -5.170439,9.29954 26.502398,26.502398 0 0 0 -0.591316,5.75672 q 0,3.11219 0.588792,4.33182 a 42.221479,42.221479 0 0 1 0.137947,0.28834 q 0.360846,0.76123 0.433183,1.00771 a 0.36505145,0.36505145 0 0 1 0.01768,0.0916 17.546862,17.546862 0 0 1 -2.371993,-0.14973 q -1.22386,-0.16722 -2.21892,-0.52236 a 6.9166311,6.9166311 0 0 1 -2.180215,-1.22048 5.6734377,5.6734377 0 0 1 -1.618339,-2.36778 q -0.36169,-0.95385 -0.508889,-2.14741 a 14.307661,14.307661 0 0 1 -0.101778,-1.75122 13.903918,13.903918 0 0 1 1.640208,-6.45151 q 1.050575,-2.03299 2.775737,-4.02062 4.415945,-5.08882 11.313229,-8.24307 a 34.878392,34.878392 0 0 1 8.621607,-2.71097 30.55245,30.55245 0 0 1 5.172964,-0.44329 32.359201,32.359201 0 0 1 4.675855,0.3188 q 2.560405,0.37431 4.697725,1.18768 a 17.549385,17.549385 0 0 1 1.729367,0.7646 17.74621,17.74621 0 0 1 3.658085,2.44096 13.951862,13.951862 0 0 1 2.944804,3.57313 16.352454,16.352454 0 0 1 2.144889,8.21364 19.20221,19.20221 0 0 1 0,0.0715 20.670827,20.670827 0 0 1 -2.047317,8.88153 25.236494,25.236494 0 0 1 -0.938704,1.80085 23.201795,23.201795 0 0 1 -7.498697,7.88394 27.714469,27.714469 0 0 1 -1.038797,0.65355 23.449088,23.449088 0 0 1 -9.700779,3.16351 29.288228,29.288228 0 0 1 -3.084433,0.15895 h -0.420564 l -5.130908,23.97224 z m 37.093936,0 8.916005,-42.05663 h 12.112311 l -1.09348,5.21503 q 2.1861,-1.92955 4.05258,-3.17021 a 22.146173,22.146173 0 0 1 1.12039,-0.69899 q 2.31311,-1.34583 5.00473,-1.34583 a 6.3000813,6.3000813 0 0 1 1.89423,0.27086 4.9635218,4.9635218 0 0 1 2.35349,1.57965 6.6087767,6.6087767 0 0 1 1.546,4.045 8.4458097,8.4458097 0 0 1 0.0102,0.413 q 0,2.43927 -1.59815,4.28976 a 5.2175439,5.2175439 0 0 1 -3.18705,1.74871 7.6198178,7.6198178 0 0 1 -1.27095,0.10173 q -1.61413,0 -2.3005,-0.67288 a 1.5830111,1.5830111 0 0 1 -0.18086,-0.21014 4.2847282,4.2847282 0 0 1 -0.41551,-0.73853 q -0.16824,-0.37431 -0.30618,-0.83187 a 10.732849,10.732849 0 0 1 -0.24568,-0.99502 q -0.20438,-0.88573 -0.40879,-1.38535 a 3.1256478,3.1256478 0 0 0 -0.0959,-0.21268 0.86300178,0.86300178 0 0 0 -0.62244,-0.47524 1.4383363,1.4383363 0 0 0 -0.30281,-0.0286 q -1.66796,0 -2.84807,0.63757 a 4.5067871,4.5067871 0 0 0 -0.13794,0.0772 10.326582,10.326582 0 0 0 -0.7873,0.51648 q -1.00685,0.72251 -2.366962,1.96486 l -6.72906,31.96304 z m 76.011446,-8.58461 a 10.127233,10.127233 0 0 0 0.95216,-0.96224 15.513004,15.513004 0 0 0 1.61329,-2.25172 q 0.70151,-1.17422 1.32731,-2.60163 a 31.132831,31.132831 0 0 0 0.59216,-1.45516 q 1.51403,-3.99538 2.18694,-8.87394 a 2.5940521,2.5940521 0 0 1 -1.9775,-1.68227 q -0.29356,-0.76289 -0.29356,-1.85048 0,-3.44864 2.60751,-4.54212 -0.16823,-2.77572 -0.84113,-3.82713 a 2.1398407,2.1398407 0 0 0 -1.21459,-0.89749 q -0.49627,-0.15387 -1.14058,-0.15387 a 4.2981862,4.2981862 0 0 0 -2.31227,0.71831 q -1.40133,0.88236 -2.75723,2.84894 a 18.619306,18.619306 0 0 0 -0.31375,0.47019 31.066382,31.066382 0 0 0 -2.48554,4.74061 41.985963,41.985963 0 0 0 -1.72012,4.93241 49.520825,49.520825 0 0 0 -0.97403,4.03744 q -0.40963,2.10449 -0.5501,3.9819 a 25.495562,25.495562 0 0 0 -0.074,1.90601 27.710264,27.710264 0 0 0 0.0513,1.74704 q 0.16318,2.57807 0.85375,3.64714 a 2.5276027,2.5276027 0 0 0 0.02,0.0318 q 0.76291,1.14393 2.55368,1.34497 a 7.2766358,7.2766358 0 0 0 0.81085,0.0429 q 1.54264,0 3.08527,-1.35086 z m 206.10434,-6.47166 4.03744,-19.00958 a 3.0280764,3.0280764 0 0 0 -0.32888,-1.35089 4.3646357,4.3646357 0 0 0 -0.51228,-0.794 2.6546137,2.6546137 0 0 0 -1.3685,-0.89161 q -0.4458,-0.13034 -0.98497,-0.15482 a 5.6044646,5.6044646 0 0 0 -0.25401,-0.006 q -2.88845,0 -5.28147,2.8834 a 14.329531,14.329531 0 0 0 -0.77468,1.02786 27.430167,27.430167 0 0 0 -2.65546,4.90548 36.477385,36.477385 0 0 0 -1.55021,4.51519 q -1.20366,4.37893 -1.45012,7.93525 a 25.715098,25.715098 0 0 0 -0.0639,1.77984 q 0,3.98107 1.09347,5.24866 a 2.0195587,2.0195587 0 0 0 0.12618,0.13448 q 1.21964,1.17759 2.98603,1.17759 a 4.8903434,4.8903434 0 0 0 2.22228,-0.55853 q 0.70149,-0.35326 1.39711,-0.93195 a 10.216394,10.216394 0 0 0 0.54419,-0.48617 9.1119865,9.1119865 0 0 0 1.9876,-2.86658 12.965214,12.965214 0 0 0 0.83021,-2.55875 z m 83.35622,8.91599 a 8.6350646,8.6350646 0 0 0 2.6134,-0.38018 7.163924,7.163924 0 0 0 2.6016,-1.4703 q 2.10284,-1.85048 2.10284,-5.97203 0,-2.5234 -0.50468,-7.06551 a 4191.6341,4191.6341 0 0 1 -0.33981,-3.89362 q -0.55682,-6.41364 -0.75367,-8.97572 -2.01872,6.64495 -6.81316,15.89741 a 4.3099621,4.3099621 0 0 1 0.99925,0.70067 2.980973,2.980973 0 0 1 0.93535,2.24329 q 0,1.59816 -1.05142,2.85984 a 3.5579898,3.5579898 0 0 1 -1.08505,0.89498 3.3292017,3.3292017 0 0 1 -1.56452,0.36674 4.3764116,4.3764116 0 0 1 -0.79318,-0.0665 q -0.41974,-0.0772 -0.73513,-0.24638 a 1.6536662,1.6536662 0 0 1 -0.74273,-0.78059 11.992865,11.992865 0 0 0 0.0966,1.57629 q 0.24638,1.85385 1.12289,2.88174 a 3.7346276,3.7346276 0 0 0 1.6419,1.09093 q 0.96056,0.33899 2.26939,0.33899 z M 419.36477,256.2118 q 3.11219,-0.16818 5.92997,-2.18696 2.81781,-2.01871 4.54212,-5.13091 1.72433,-3.11219 1.72433,-6.56083 0,-3.44864 -2.10283,-3.44864 a 4.0307061,4.0307061 0 0 0 -2.2534,0.74524 q -1.8631,1.24153 -3.67658,4.55391 a 38.038528,38.038528 0 0 0 -3.21482,7.96214 46.44985,46.44985 0 0 0 -0.94879,4.06605 z M 126.72811,229.94071 a 6.5541031,6.5541031 0 0 0 3.0348,0.70064 7.9344014,7.9344014 0 0 0 0.0108,0 6.5498975,6.5498975 0 0 0 4.74147,-1.9346 7.634117,7.634117 0 0 0 0.0917,-0.0915 6.331203,6.331203 0 0 0 1.88498,-4.61864 7.7451465,7.7451465 0 0 0 0,-0.0868 6.4725135,6.4725135 0 0 0 -1.97666,-4.66575 7.9041207,7.9041207 0 0 0 -0.0623,-0.0614 6.4708312,6.4708312 0 0 0 -4.69016,-1.91524 7.7140246,7.7140246 0 0 0 -0.12955,8.2e-4 6.3295209,6.3295209 0 0 0 -4.5808,1.97584 7.8721575,7.8721575 0 0 0 -0.008,0.006 6.5498975,6.5498975 0 0 0 -1.92704,4.74482 7.9083263,7.9083263 0 0 0 8.4e-4,0.0858 6.400176,6.400176 0 0 0 1.93377,4.62455 6.6710206,6.6710206 0 0 0 1.67553,1.23393 z m 91.01051,0 a 6.5541031,6.5541031 0 0 0 3.03481,0.70064 7.9344014,7.9344014 0 0 0 0.0108,0 6.5498975,6.5498975 0 0 0 4.74146,-1.9346 7.634117,7.634117 0 0 0 0.0917,-0.0915 6.331203,6.331203 0 0 0 1.88497,-4.61864 7.7451465,7.7451465 0 0 0 0,-0.0868 6.4725135,6.4725135 0 0 0 -1.97666,-4.66575 7.9041207,7.9041207 0 0 0 -0.0622,-0.0614 6.4708312,6.4708312 0 0 0 -4.69016,-1.91524 7.7140246,7.7140246 0 0 0 -0.12954,8.2e-4 6.3295209,6.3295209 0 0 0 -4.58081,1.97584 7.8721575,7.8721575 0 0 0 -0.008,0.006 6.5498975,6.5498975 0 0 0 -1.92704,4.74482 7.9083263,7.9083263 0 0 0 8.5e-4,0.0858 6.400176,6.400176 0 0 0 1.93376,4.62455 6.6710206,6.6710206 0 0 0 1.67553,1.23393 z m 49.97,54.28078 0.50467,-2.43928 a 30.59703,30.59703 0 0 0 -3.00873,1.27516 q -5.23436,2.58984 -5.23436,5.87447 0,1.09348 0.75702,1.9346 a 2.4796582,2.4796582 0 0 0 1.42992,0.78142 3.6463085,3.6463085 0 0 0 0.67291,0.0598 q 1.39207,0 2.70508,-1.83452 a 9.2196515,9.2196515 0 0 0 0.0706,-0.10014 q 1.34581,-1.9346 2.10283,-5.55147 z"
       vector-effect="non-scaling-stroke"
       id="path516"
       style="font-size:12px;fill:#000000;fill-rule:evenodd;stroke:#000000;stroke-width:0.210283mm;stroke-linecap:round" /></g></svg>
